#tb 0: 1/15
#media_type 0: video
#codec_id 0: rawvideo
#dimensions 0: 320x160
#sar 0: 0/1
0,          0,          0,        1,    76800, 0x2677be82
0,          1,          1,        1,    76800, 0x1f323c75
0,          2,          2,        1,    76800, 0xc8be3be9
0,          3,          3,        1,    76800, 0x1f323c75
0,          4,          4,        1,    76800, 0x7e484488
0,          5,          5,        1,    76800, 0x8bd644aa
0,          6,          6,        1,    76800, 0xaa62e7b8
0,          7,          7,        1,    76800, 0xaa62e7b8
0,          8,          8,        1,    76800, 0x53fadb39
0,          9,          9,        1,    76800, 0x53fadb39
0,         10,         10,        1,    76800, 0x1ff9d964
0,         11,         11,        1,    76800, 0x1ff9d964
0,         12,         12,        1,    76800, 0xd8c8d947
0,         13,         13,        1,    76800, 0xd8c8d947
0,         14,         14,        1,    76800, 0x6d0bd94c
0,         15,         15,        1,    76800, 0x6d0bd94c
0,         16,         16,        1,    76800, 0x7e66d948
0,         17,         17,        1,    76800, 0x7e66d948
0,         18,         18,        1,    76800, 0x8eecfd72
0,         19,         19,        1,    76800, 0xb15f29ab
0,         20,         20,        1,    76800, 0x08e5502e
0,         21,         21,        1,    76800, 0xaa58796d
0,         22,         22,        1,    76800, 0xe254a27c
0,         23,         23,        1,    76800, 0xeec8cf68
0,         24,         24,        1,    76800, 0x812bf8ee
0,         25,         25,        1,    76800, 0x929922ef
0,         26,         26,        1,    76800, 0xe1174e06
0,         27,         27,        1,    76800, 0x2da77bf1
0,         28,         28,        1,    76800, 0xd0f6a727
0,         29,         29,        1,    76800, 0x31bfd168
0,         30,         30,        1,    76800, 0xb87af225
0,         31,         31,        1,    76800, 0xd0080859
0,         32,         32,        1,    76800, 0x99ab15ba
0,         33,         33,        1,    76800, 0x99ab15ba
0,         34,         34,        1,    76800, 0x99ab15ba
0,         35,         35,        1,    76800, 0x99ab15ba
0,         36,         36,        1,    76800, 0x99ab15ba
0,         37,         37,        1,    76800, 0x99ab15ba
0,         38,         38,        1,    76800, 0x99ab15ba
0,         39,         39,        1,    76800, 0x99ab15ba
0,         40,         40,        1,    76800, 0x99ab15ba
0,         41,         41,        1,    76800, 0x99ab15ba
0,         42,         42,        1,    76800, 0x99ab15ba
0,         43,         43,        1,    76800, 0x99ab15ba
0,         44,         44,        1,    76800, 0x99ab15ba
0,         45,         45,        1,    76800, 0x99ab15ba
0,         46,         46,        1,    76800, 0x99ab15ba
0,         47,         47,        1,    76800, 0x99ab15ba
0,         48,         48,        1,    76800, 0x0c1617d5
0,         49,         49,        1,    76800, 0xb1c81b5d
0,         50,         50,        1,    76800, 0xb4e41e44
0,         51,         51,        1,    76800, 0x765725e2
0,         52,         52,        1,    76800, 0x25cd3109
0,         53,         53,        1,    76800, 0xa42b5291
0,         54,         54,        1,    76800, 0x15bb6ee4
0,         55,         55,        1,    76800, 0xb33c9f50
0,         56,         56,        1,    76800, 0x1ca1b874
0,         57,         57,        1,    76800, 0x7506e92a
0,         58,         58,        1,    76800, 0x97c9030a
